<?xml version="1.0" encoding="UTF-8"?>
<svg id="Calque_2" data-name="Calque 2" xmlns="http://www.w3.org/2000/svg" viewBox="0 0 314 83.78">
  <defs>
    <style>
      .cls-1, .cls-2 {
        fill: #1d1d1b;
      }

      .cls-1, .cls-3 {
        stroke-width: 0px;
      }

      .cls-2 {
        stroke: #161917;
        stroke-miterlimit: 10;
      }

      .cls-3 {
        fill: #161917;
      }
    </style>
  </defs>
  <g id="Calque_1-2" data-name="Calque 1">
    <path class="cls-3" d="M15.32,19.28c-.76,0-1.48,0-2.16.04-.68.03-1.33,0-1.98-.12-1.23-.16-2.52-.3-3.87-.43-1.34-.13-2.58-.4-3.69-.78-1.11-.4-2.02-.98-2.73-1.76C.2,15.43-.1,14.31.03,12.85c.12-1.15.66-2.2,1.62-3.14.97-.95,2.21-1.54,3.73-1.8.65-.1,1.31-.18,1.98-.24.68-.06,1.33-.08,1.98-.08,3.34.16,6.6.08,9.8-.24,3.19-.31,6.37-.68,9.53-1.1,1.34-.26,2.64-.44,3.87-.55,1.23-.1,2.43-.06,3.61.16,1.34.27,2.49.81,3.43,1.64.94.84,1.5,1.86,1.67,3.06.35,2.41-.73,4.19-3.25,5.34-.71.37-1.5.64-2.37.83-.88.18-1.73.35-2.55.51-.65.16-1.29.27-1.93.31-.65.06-1.31.13-2.02.24v2.59c-.06,5.92-.09,11.74-.09,17.5s-.03,11.57-.09,17.42c0,.74-.06,1.44-.17,2.12-.12.68-.26,1.33-.44,1.97-.35,1.42-1.13,2.53-2.33,3.34-1.2.81-2.59,1.17-4.18,1.06-1.59,0-2.96-.44-4.13-1.33-1.17-.89-1.9-2.07-2.19-3.53-.12-.68-.17-1.33-.17-1.97v-2.04c0-5.49,0-10.99.05-16.48.03-5.49.08-11.02.14-16.56,0-.41-.02-.84-.05-1.26-.03-.41-.08-.86-.14-1.33h-.04Z"/>
    <path class="cls-3" d="M72.57,25.52c1.88,0,3.24.4,4.09,1.21.85.81,1.42,1.86,1.71,3.13.82,3.17,1.4,6.32,1.76,9.44.35,3.11.44,6.27.26,9.44-.12,1.45-.56,2.76-1.32,3.92-.53.84-1.17,1.48-1.93,1.92-.76.45-1.59.7-2.47.75-.88.06-1.76-.07-2.64-.38-.88-.3-1.67-.82-2.37-1.54-.47-.51-.86-1.03-1.19-1.59-.32-.55-.72-1.14-1.19-1.75-1.47,1.67-3.05,3.19-4.75,4.55-1.7,1.37-3.49,2.41-5.36,3.13-1.88.73-3.86,1.05-5.94.96-2.08-.08-4.21-.76-6.37-2.05-1-.62-1.96-1.3-2.9-2.05-.94-.75-1.73-1.57-2.37-2.46-1.93-2.56-3.1-5.22-3.52-7.98-.41-2.76,0-5.58,1.23-8.48,2.81-6.35,8.03-10.94,15.64-13.78,2.05-.78,4.18-1.27,6.37-1.46,2.19-.19,4.41-.05,6.63.46,1.53.33,2.85.84,4,1.51,1.14.67,2.01,1.7,2.59,3.09h0ZM68.61,29.36c-3.69.28-6.99.97-9.89,2.09-2.9,1.11-5.32,2.89-7.25,5.35-1,1.28-1.68,2.62-2.07,4.01-.38,1.4-.5,2.73-.35,4.01.15,1.28.54,2.41,1.19,3.38.65.97,1.46,1.63,2.46,1.97,1,.33,2.16.29,3.47-.13,1.31-.41,2.74-1.38,4.26-2.89,1.17-1.17,2.27-2.54,3.3-4.09,1.02-1.56,1.91-3.16,2.68-4.81.76-1.64,1.33-3.24,1.71-4.81.38-1.56.54-2.92.48-4.09h0Z"/>
    <path class="cls-3" d="M91.34,19.28c-.76,0-1.48,0-2.16.04-.68.03-1.33,0-1.98-.12-1.23-.16-2.52-.3-3.87-.43-1.34-.13-2.58-.4-3.69-.78-1.11-.4-2.02-.98-2.73-1.76-.71-.78-1-1.91-.88-3.37.12-1.15.66-2.2,1.62-3.14.97-.95,2.21-1.54,3.73-1.8.65-.1,1.31-.18,1.98-.24.68-.06,1.33-.08,1.98-.08,3.34.16,6.6.08,9.8-.24,3.19-.31,6.37-.68,9.53-1.1,1.34-.26,2.64-.44,3.87-.55,1.23-.1,2.43-.06,3.61.16,1.34.27,2.49.81,3.43,1.64.94.84,1.5,1.86,1.67,3.06.35,2.41-.74,4.19-3.25,5.34-.71.37-1.5.64-2.37.83-.88.18-1.73.35-2.55.51-.65.16-1.29.27-1.93.31-.65.06-1.32.13-2.02.24v2.59c-.06,5.92-.09,11.74-.09,17.5s-.03,11.57-.09,17.42c0,.74-.06,1.44-.17,2.12-.12.68-.26,1.33-.43,1.97-.35,1.42-1.13,2.53-2.33,3.34-1.2.81-2.59,1.17-4.18,1.06-1.59,0-2.96-.44-4.13-1.33-1.17-.89-1.9-2.07-2.19-3.53-.12-.68-.17-1.33-.17-1.97v-2.04c0-5.49,0-10.99.05-16.48.03-5.49.08-11.02.14-16.56,0-.41-.02-.84-.05-1.26-.03-.41-.08-.86-.14-1.33h-.02Z"/>
    <path class="cls-3" d="M132.77,53.45c-.06.56-.15,1.13-.26,1.71-.12.59-.32,1.13-.62,1.63-1.11,1.89-2.9,2.87-5.36,2.92-2.75.11-4.72-.81-5.89-2.76-.29-.62-.54-1.24-.74-1.88-.2-.64-.31-1.27-.31-1.88-.06-1-.09-2.22-.09-3.68s.02-2.94.05-4.47c.03-1.53.08-3.02.13-4.47.06-1.44.12-2.67.18-3.68.06-.95.22-1.88.48-2.79.26-.92.57-1.85.92-2.8.35-.95.92-1.7,1.71-2.25.79-.56,1.83-.86,3.12-.92,1.34-.06,2.45.19,3.3.75.85.56,1.48,1.31,1.89,2.25.65,1.45,1.11,3.14,1.4,5.1.29,1.95.46,3.95.53,6.01.06,2.06.03,4.06-.09,6.02-.12,1.95-.23,3.68-.35,5.18h0ZM126.44,14.95c1.7,0,3.18.46,4.44,1.38,1.26.92,1.91,2.08,1.97,3.46.12,1.4-.45,2.62-1.71,3.68-1.26,1.06-2.77,1.59-4.53,1.59-1.7.06-3.16-.39-4.4-1.33-1.23-.95-1.9-2.11-2.02-3.51-.06-1.45.51-2.67,1.71-3.68,1.2-1,2.71-1.53,4.53-1.59h0Z"/>
    <path class="cls-3" d="M152.4,19.28c-.76,0-1.48,0-2.16.04-.68.03-1.33,0-1.98-.12-1.23-.16-2.52-.3-3.87-.43-1.34-.13-2.58-.4-3.69-.78-1.11-.4-2.02-.98-2.73-1.76-.71-.78-1-1.91-.88-3.37.12-1.15.66-2.2,1.62-3.14.97-.95,2.21-1.54,3.73-1.8.65-.1,1.3-.18,1.98-.24s1.34-.08,1.98-.08c3.34.16,6.61.08,9.81-.24,3.19-.31,6.37-.68,9.53-1.1,1.34-.26,2.64-.44,3.87-.55,1.23-.1,2.43-.06,3.61.16,1.34.27,2.49.81,3.43,1.64.94.84,1.5,1.86,1.67,3.06.35,2.41-.74,4.19-3.25,5.34-.71.37-1.5.64-2.37.83-.88.18-1.73.35-2.55.51-.65.16-1.29.27-1.93.31-.65.06-1.32.13-2.02.24v2.59c-.06,5.92-.09,11.74-.09,17.5s-.03,11.57-.09,17.42c0,.74-.06,1.44-.17,2.12s-.26,1.33-.43,1.97c-.35,1.42-1.13,2.53-2.33,3.34-1.2.81-2.59,1.17-4.18,1.06-1.59,0-2.96-.44-4.13-1.33-1.17-.89-1.9-2.07-2.2-3.53-.12-.68-.17-1.33-.17-1.97v-2.04c0-5.49,0-10.99.05-16.48.03-5.49.08-11.02.14-16.56,0-.41-.02-.84-.05-1.26-.03-.41-.08-.86-.13-1.33h-.02Z"/>
    <path class="cls-3" d="M174.81,41.48c.17-5.24,1.73-9.66,4.66-13.28,1.34-1.67,3.02-3.08,5.01-4.22,1.99-1.14,4.09-1.99,6.29-2.55,2.19-.55,4.45-.81,6.77-.75,2.31.06,4.52.43,6.59,1.13,2.08.7,3.96,1.74,5.63,3.13,1.67,1.4,2.98,3.14,3.92,5.26,1.59,3.51,1.85,7.07.79,10.69-1.59,5.68-5.12,10.33-10.64,13.95-2.05,1.4-4.25,2.4-6.6,3-2.34.62-4.86.75-7.56.41-4.92-.51-8.73-2.51-11.43-6.01-1.29-1.78-2.18-3.59-2.68-5.43-.5-1.84-.74-3.62-.74-5.35h-.01ZM189.49,46.16c1.46,2.78,3.87,3.7,7.2,2.76,1.17-.33,2.27-.89,3.3-1.67,1.03-.78,1.96-1.65,2.81-2.63.85-.97,1.55-2,2.11-3.09.55-1.08.92-2.1,1.1-3.05.46-2.34.2-4.19-.79-5.56-1-1.36-2.32-2.25-3.96-2.67-1.64-.41-3.43-.38-5.36.13-1.93.51-3.59,1.42-4.97,2.76-1.37,1.33-2.28,3.11-2.73,5.3-.45,2.2-.02,4.78,1.28,7.73Z"/>
    <path class="cls-3" d="M224.72,19.28c-.76,0-1.48,0-2.16.04-.68.03-1.34,0-1.98-.12-1.23-.16-2.52-.3-3.87-.43-1.34-.13-2.58-.4-3.69-.78-1.11-.4-2.02-.98-2.73-1.76-.71-.78-1-1.91-.88-3.37.12-1.15.66-2.2,1.62-3.14.97-.95,2.21-1.54,3.73-1.8.65-.1,1.31-.18,1.98-.24.68-.06,1.33-.08,1.98-.08,3.34.16,6.6.08,9.8-.24,3.19-.31,6.37-.68,9.53-1.1,1.34-.26,2.64-.44,3.87-.55,1.23-.1,2.43-.06,3.61.16,1.34.27,2.49.81,3.43,1.64.94.84,1.5,1.86,1.67,3.06.35,2.41-.74,4.19-3.25,5.34-.71.37-1.5.64-2.37.83-.88.18-1.73.35-2.55.51-.65.16-1.29.27-1.93.31-.65.06-1.32.13-2.02.24v2.59c-.06,5.92-.09,11.74-.09,17.5s-.03,11.57-.09,17.42c0,.74-.06,1.44-.17,2.12s-.26,1.33-.43,1.97c-.35,1.42-1.13,2.53-2.33,3.34-1.2.81-2.59,1.17-4.18,1.06-1.59,0-2.96-.44-4.13-1.33-1.17-.89-1.9-2.07-2.19-3.53-.12-.68-.17-1.33-.17-1.97v-2.04c0-5.49,0-10.99.05-16.48.03-5.49.08-11.02.13-16.56,0-.41-.02-.84-.05-1.26-.03-.41-.08-.86-.14-1.33h-.02Z"/>
    <path class="cls-3" d="M276.42,24.62c.23-.58.6-1.08,1.1-1.51.49-.42,1.16-.69,1.98-.79.82-.06,1.53.11,2.11.48.58.37,1.02.85,1.32,1.42.59,1.17.97,2.3,1.14,3.41.35,2.49.48,5.06.4,7.74-.09,2.67-.5,5.25-1.23,7.74-.73,2.49-1.88,4.73-3.42,6.74-1.56,2.01-3.59,3.57-6.11,4.68-3.1,1.38-6.09,1.93-8.96,1.66-2.87-.27-5.42-1.11-7.65-2.54-2.22-1.42-4.01-3.34-5.36-5.75-1.34-2.41-2.05-5.06-2.11-7.98-.06-1.42,0-3.01.17-4.76.17-1.75.48-3.46.92-5.15s1.04-3.25,1.8-4.68c.76-1.42,1.76-2.54,2.99-3.34.88-.58,1.79-.94,2.73-1.08.94-.13,1.8-.06,2.59.24.79.29,1.46.74,2.02,1.35.55.61.86,1.39.92,2.34.12,1.27.14,2.54.05,3.8-.09,1.27-.2,2.52-.35,3.73-.15,1.22-.26,2.43-.35,3.65-.09,1.22-.05,2.41.14,3.57.23,2.01.74,3.53,1.54,4.57.79,1.03,1.68,1.68,2.68,1.95,1,.27,2.05.17,3.16-.28,1.11-.45,2.08-1.2,2.9-2.26,1.05-1.38,1.74-2.86,2.07-4.45.32-1.59.51-3.2.57-4.84.06-1.64.05-3.28-.05-4.92-.09-1.64.02-3.23.31-4.76h0Z"/>
    <path class="cls-2" d="M229.91,83.28c-3.17,0-6.01-.32-8.53-.97-2.52-.65-4.93-1.64-7.23-2.98-2.88-1.75-5.34-3.68-7.38-5.81-2.04-2.13-3.54-4.57-4.5-7.31-.24-.4-.39-.85-.43-1.3-.05-.46-.05-.9,0-1.3.05-.63.31-1.15.79-1.55.48-.4,1.1-.63,1.88-.67.71-.07,1.39.04,2.01.33.62.29,1.08.74,1.36,1.33.1.22.18.41.25.58.07.17.15.34.25.53,1.1,2.89,2.9,5.15,5.39,6.75,2.5,1.61,5.49,2.67,9,3.2,2.88.44,5.78.57,8.71.39,2.93-.18,5.73-.67,8.42-1.44,2.69-.78,5.17-1.85,7.46-3.2,2.28-1.35,4.21-3,5.79-4.92.34-.33.66-.7.97-1.08.31-.39.64-.75.97-1.08,1.3-1.3,2.9-1.73,4.83-1.28,1.2.29,2.1.79,2.7,1.47.6.69.97,1.44,1.11,2.28.14.84.09,1.7-.18,2.58-.26.89-.66,1.68-1.19,2.39-1.68,2.04-3.68,3.87-6.01,5.5-2.33,1.64-4.89,3.01-7.71,4.14-2.81,1.13-5.79,1.99-8.96,2.58-3.17.59-6.43.87-9.79.84l.02.02Z"/>
    <path class="cls-1" d="M289.39,17.29c1.05-.97,2.03-2.13,2.95-3.47.92-1.34,1.82-2.73,2.69-4.17.87-1.44,1.74-2.86,2.61-4.25.87-1.4,1.76-2.68,2.67-3.86.24-.39.57-.73.98-.99.41-.28.82-.44,1.26-.51.43-.06.88,0,1.34.17.46.17.91.53,1.32,1.08.47.62.79,1.31.97,2.08.17.77.25,1.53.25,2.31s-.09,1.5-.24,2.2c-.15.69-.33,1.25-.53,1.68-.77,1.65-1.67,3.1-2.72,4.36-1.03,1.25-2.14,2.39-3.32,3.4-1.18,1.01-2.44,1.91-3.77,2.68-1.33.77-2.68,1.51-4.03,2.2-1.28.67-2.32.96-3.12.87-.8-.09-1.32-.4-1.58-.94-.25-.54-.19-1.24.16-2.1.36-.86,1.06-1.76,2.12-2.69h0ZM310.83,24.34c-.69.23-1.5.46-2.42.68-.93.22-1.88.43-2.84.62-.97.19-1.92.33-2.85.41-.93.08-1.78.09-2.56.02-.53-.09-.97-.31-1.31-.66-.34-.35-.53-.74-.58-1.14-.05-.4.06-.81.32-1.2.26-.4.74-.69,1.44-.87.64-.17,1.32-.47,2.09-.91.75-.43,1.5-.93,2.24-1.47.73-.54,1.44-1.13,2.11-1.75.67-.62,1.27-1.19,1.8-1.7.76-.58,1.51-.82,2.21-.74.72.09,1.34.38,1.9.85.55.48.98,1.08,1.27,1.82.29.74.4,1.5.33,2.29-.08.79-.35,1.53-.83,2.21-.48.69-1.25,1.19-2.3,1.53h-.02Z"/>
  </g>
</svg>